<svg width="20" height="20" viewBox="0 0 20 20" fill="none" xmlns="http://www.w3.org/2000/svg">
<g clip-path="url(#clip0_35651_6782)">
<path fill-rule="evenodd" clip-rule="evenodd" d="M14.8113 0.69342C14.7187 0.772327 13.125 4.57416 13.125 4.71608C13.125 4.93979 13.4523 5.08088 13.6253 4.9317C13.6702 4.89295 14.0294 4.08108 14.4548 3.0567L15.2051 1.25006L15.6201 1.24881C16.0548 1.24752 16.1194 1.22686 16.2079 1.06088C16.2685 0.947014 16.2362 0.807913 16.1249 0.70428C16.0475 0.632131 15.9886 0.625061 15.4657 0.625061C14.9754 0.625061 14.8797 0.635061 14.8113 0.69342ZM16.9709 0.720959C16.9104 0.781389 16.875 0.861467 16.875 0.937561C16.875 1.01365 16.9104 1.09373 16.9709 1.15416L17.0667 1.25006H18.125H19.1832L19.2791 1.15416C19.3395 1.09373 19.375 1.01365 19.375 0.937561C19.375 0.861467 19.3395 0.781389 19.2791 0.720959L19.1832 0.625061H18.125H17.0667L16.9709 0.720959ZM10.4242 1.32471L10.332 1.3994L10.3214 3.86932C10.3095 6.62229 10.2953 6.47205 10.5792 6.58924C10.8397 6.69674 11.34 6.95764 11.5211 7.08041C12.3111 7.61608 12.967 8.40338 13.3352 9.25787C13.3954 9.39752 13.4879 9.55131 13.5409 9.59967L13.6372 9.68756H16.0977H18.5582L18.6599 9.58584L18.7616 9.48413L18.7372 8.97061C18.6347 6.81694 17.6723 4.77655 16.0937 3.36639C15.5317 2.86436 15.4204 2.81405 15.2201 2.97166C15.1407 3.03412 15.1172 3.08701 15.1172 3.20338C15.1172 3.34487 15.1384 3.37213 15.4621 3.64674C17.0141 4.96358 17.8993 6.69545 18.1052 8.81842L18.1288 9.06256L16.0273 9.06151L13.9257 9.06045L13.8093 8.79994C13.3566 7.78737 12.2127 6.64338 11.2001 6.19073L10.9396 6.07428L10.9385 3.97155L10.9375 1.86885L11.2011 1.89467C11.7396 1.9474 12.2589 2.04299 12.7082 2.17201C12.9623 2.24502 13.2048 2.30475 13.247 2.30475C13.3618 2.30475 13.5156 2.13108 13.5156 2.00139C13.5156 1.82756 13.3902 1.73237 12.994 1.60545C12.3491 1.39885 11.4406 1.25229 10.7953 1.25073C10.5782 1.25022 10.496 1.26662 10.4242 1.32471ZM16.9709 1.97096C16.9104 2.03139 16.875 2.11147 16.875 2.18756C16.875 2.26365 16.9104 2.34373 16.9709 2.40416L17.0667 2.50006H18.125H19.1832L19.2791 2.40416C19.3395 2.34373 19.375 2.26365 19.375 2.18756C19.375 2.11147 19.3395 2.03139 19.2791 1.97096L19.1832 1.87506H18.125H17.0667L16.9709 1.97096ZM7.92965 3.16885C6.38571 3.32408 4.77172 3.99799 3.59684 4.97791C3.2052 5.30455 2.53574 6.00155 2.25789 6.37182C1.05438 7.97584 0.47258 10.03 0.664377 11.9979C0.810861 13.5005 1.36613 14.9398 2.25789 16.1283C2.53555 16.4983 3.20594 17.1964 3.59348 17.5189C5.21164 18.8655 7.43785 19.5456 9.53684 19.3344C10.4875 19.2387 11.494 18.9506 12.3437 18.5308C12.9679 18.2225 13.0859 18.1281 13.0859 17.9369C13.0859 17.8031 13.0266 17.7355 12.0792 16.788C11.3366 16.0454 11.0485 15.7813 10.9811 15.7813C10.9308 15.7813 10.7215 15.8443 10.5159 15.9213C9.86844 16.1638 9.52203 16.2244 8.7695 16.2265C8.03469 16.2286 7.70266 16.1769 7.10934 15.9676C6.37461 15.7085 5.80141 15.3433 5.23063 14.7707C4.49442 14.0321 4.06196 13.2389 3.84375 12.2266C3.74367 11.7624 3.74367 10.7378 3.84375 10.2735C4.06196 9.26123 4.49442 8.46799 5.23063 7.7294C6.13039 6.82678 7.20692 6.33979 8.47371 6.26225C8.82985 6.24049 8.89532 6.22545 8.97301 6.14776L9.06246 6.0583V4.68756V3.31682L8.96657 3.22096C8.88004 3.1344 8.84106 3.12557 8.56617 3.13026C8.39871 3.13311 8.11227 3.15045 7.92965 3.16885ZM7.92965 3.79315C5.72926 4.04053 3.73516 5.23569 2.53285 7.0278C1.6927 8.28006 1.24797 9.74053 1.25063 11.2388C1.25578 14.1552 2.9125 16.7628 5.56637 18.0315C7.54043 18.9752 9.96098 18.9827 11.895 18.0511L12.2686 17.8712L11.5679 17.1724L10.8673 16.4737L10.4825 16.5951C9.81711 16.805 9.50125 16.8526 8.7695 16.8528C7.78532 16.8531 7.17453 16.7128 6.30856 16.2872C4.60352 15.4492 3.39543 13.7594 3.16805 11.8946C2.84766 9.26694 4.47715 6.72752 7.01168 5.90451C7.31 5.80764 7.70633 5.72686 8.31051 5.63983L8.43746 5.62151V4.6858V3.75006L8.33004 3.75514C8.27098 3.75791 8.09078 3.77502 7.92965 3.79315ZM8.37887 8.77182C8.3359 8.78174 8.20406 8.8094 8.0859 8.83323C7.1943 9.01303 6.04309 9.82534 5.23031 10.8481C4.93117 11.2246 4.93117 11.2774 5.23055 11.6481C6.40258 13.0995 7.86321 13.8822 9.09371 13.7183C9.965 13.6024 10.7643 13.1669 11.6155 12.3446C12.1663 11.8124 12.5 11.3996 12.5 11.2503C12.5 11.0431 11.7772 10.2245 11.1664 9.73994C10.6023 9.29241 10.0489 8.99643 9.49531 8.84612C9.27848 8.78721 8.52797 8.73729 8.37887 8.77182ZM8.18356 9.45178C8.03317 9.49162 7.82567 9.56073 7.72242 9.60541C7.18867 9.83635 6.48239 10.3742 5.98215 10.9305L5.69481 11.2501L5.98215 11.5696C6.98801 12.6883 8.16149 13.256 9.12223 13.0887C9.89703 12.9537 10.7679 12.4013 11.5178 11.569L11.8051 11.2501L11.5178 10.9308C10.4247 9.71627 9.21352 9.17901 8.18356 9.45178ZM8.45457 10.0342C8.26356 10.0839 7.93156 10.2795 7.8266 10.4042C7.77348 10.4674 7.68336 10.6088 7.62633 10.7185C7.53824 10.8881 7.52254 10.9679 7.5218 11.2501C7.52102 11.5541 7.53215 11.6028 7.65367 11.8282C7.80149 12.1024 7.92407 12.2207 8.21844 12.3737C8.38856 12.4621 8.4668 12.4774 8.74996 12.4774C9.03313 12.4774 9.11137 12.4621 9.28149 12.3737C9.57586 12.2207 9.69844 12.1024 9.84625 11.8282C9.96778 11.6028 9.97891 11.5541 9.97813 11.2501C9.97739 10.9679 9.96168 10.8881 9.8736 10.7185C9.72137 10.4256 9.60207 10.3014 9.33793 10.1606C9.08555 10.026 8.69895 9.97073 8.45457 10.0342ZM8.4941 10.68C8.1 10.8517 8.00692 11.3756 8.31567 11.6844C8.75453 12.1232 9.47371 11.7301 9.35824 11.1145C9.28914 10.7463 8.84949 10.5252 8.4941 10.68ZM13.8523 11.027C13.7745 11.1048 13.7595 11.1702 13.7376 11.5287C13.6668 12.6855 13.227 13.7416 12.467 14.5801C12.1972 14.8778 12.1552 14.9816 12.24 15.1423C12.2723 15.2037 12.7097 15.6626 13.2118 16.1622C14.0866 17.0323 14.1312 17.0704 14.2755 17.0704C14.4068 17.0704 14.4511 17.0439 14.6191 16.8653C15.8938 15.5099 16.6564 13.8351 16.8356 11.9979C16.9012 11.3245 16.8907 11.145 16.7791 11.0335L16.6832 10.9376H15.3125H13.9417L13.8523 11.027ZM14.3564 11.7481C14.3015 12.1854 14.2101 12.641 14.1172 12.9405C13.9765 13.3938 13.5972 14.1437 13.3223 14.5118C13.194 14.6837 13.059 14.8652 13.0223 14.9153C12.9559 15.006 12.9577 15.0083 13.619 15.6696L14.2824 16.333L14.5251 16.0395C15.2834 15.1228 15.8125 14.0419 16.0689 12.8861C16.1527 12.5082 16.25 11.8296 16.25 11.6227C16.25 11.5702 16.1307 11.5626 15.3148 11.5626H14.3798L14.3564 11.7481Z" fill="white"/>
</g>
<defs>
<clipPath id="clip0_35651_6782">
<rect width="20" height="20" fill="white"/>
</clipPath>
</defs>
</svg>
