<svg width="20" height="20" viewBox="0 0 20 20" fill="none" xmlns="http://www.w3.org/2000/svg">
<g clip-path="url(#clip0_35651_6787)">
<path fill-rule="evenodd" clip-rule="evenodd" d="M9.23705 0.0621421C8.88568 0.186908 8.59397 0.578587 8.59397 0.925619V1.09374H5.33049H2.06697L1.97111 1.18964C1.8367 1.32402 1.84369 1.49792 1.9894 1.64363L2.10357 1.75781L4.4015 1.75851L6.69943 1.75921L6.22639 2.00753C4.63061 2.84519 3.42311 4.0807 2.63369 5.68359C2.35408 6.25132 2.07209 7.0666 1.96865 7.60613L1.90014 7.96343L1.66307 8.04847C1.48068 8.1139 1.37104 8.18925 1.1876 8.37531C0.899708 8.6673 0.802091 8.9066 0.803731 9.3164C0.805684 9.80464 1.09791 10.263 1.55139 10.4892C1.74607 10.5863 1.82381 10.6023 2.10959 10.6037C2.38897 10.6052 2.47643 10.5891 2.66115 10.5025C3.09275 10.3001 3.36182 9.94785 3.43506 9.48913C3.47807 9.2198 3.41717 9.05675 3.24721 8.98636C3.14865 8.94554 3.1024 8.94527 3.00654 8.98499C2.86459 9.04378 2.8233 9.1132 2.77326 9.3771C2.72479 9.63265 2.60787 9.79503 2.40643 9.88652C2.20412 9.97835 2.05432 9.97847 1.8526 9.88687C1.55506 9.75171 1.40397 9.44003 1.48686 9.13226C1.54725 8.908 1.77381 8.68577 1.97479 8.65374C2.05967 8.64023 2.18639 8.62035 2.25639 8.6096C2.42943 8.58308 2.48842 8.47699 2.55963 8.06413C2.98045 5.62453 4.49932 3.5907 6.69943 2.5207C7.41471 2.17285 8.06342 1.9707 8.94994 1.81941C9.18479 1.77933 9.23682 1.68503 9.25006 1.27523C9.26873 0.697494 9.31002 0.664056 10.0046 0.664056C10.7227 0.664056 10.7395 0.681087 10.7412 1.41074C10.7423 1.89074 10.7345 1.95261 10.6614 2.0455C10.6169 2.1021 10.5453 2.14843 10.5022 2.14843C10.378 2.14843 10.1955 2.35691 10.1955 2.49878C10.1955 2.67265 10.346 2.81249 10.533 2.81249C10.9587 2.81249 11.4065 2.33464 11.4065 1.88023V1.75781H14.6517H17.8969L18.011 1.64363C18.1567 1.49792 18.1637 1.32402 18.0293 1.18964L17.9335 1.09374H14.6699H11.4065V0.925619C11.4065 0.572494 11.1124 0.189134 10.741 0.0581186C10.517 -0.0209439 9.46307 -0.0180923 9.23705 0.0621421ZM13.6749 2.25136C13.4879 2.48906 13.5848 2.64902 14.1185 2.98374C15.2647 3.70265 16.3177 4.93921 16.8912 6.23992C17.1596 6.84835 17.323 7.39281 17.4383 8.06191C17.5103 8.47945 17.5696 8.58273 17.7538 8.61144C17.8292 8.6232 17.9559 8.64304 18.0354 8.65558C18.2262 8.68562 18.4547 8.91339 18.5136 9.13226C18.5965 9.44003 18.4454 9.75171 18.1478 9.88687C17.9461 9.97847 17.7963 9.97835 17.594 9.88652C17.3926 9.79503 17.2756 9.63265 17.2272 9.3771C17.1771 9.1132 17.1358 9.04378 16.9939 8.98499C16.898 8.94527 16.8518 8.94554 16.7532 8.98636C16.5833 9.05675 16.5224 9.2198 16.5654 9.48913C16.6386 9.94785 16.9077 10.3001 17.3393 10.5025C17.524 10.5891 17.6115 10.6052 17.8908 10.6037C18.1766 10.6023 18.2544 10.5863 18.449 10.4892C18.9025 10.263 19.1947 9.80464 19.1967 9.3164C19.1983 8.9066 19.1007 8.6673 18.8128 8.37531C18.6294 8.18925 18.5197 8.1139 18.3374 8.04847L18.1003 7.96343L18.0318 7.60613C17.8785 6.80675 17.4478 5.72933 16.9798 4.97456C16.4653 4.14495 15.7205 3.328 14.954 2.75261C14.1399 2.14144 13.8506 2.02808 13.6749 2.25136ZM8.55529 4.54359C8.48033 4.56745 8.3485 4.65913 8.26233 4.74738C8.1344 4.87835 5.61658 8.90109 5.36592 9.37499C5.30951 9.4816 5.29358 9.59773 5.29338 9.90234L5.29318 10.293L6.01045 11.9114C6.63412 13.3187 6.71963 13.5353 6.66584 13.5716C6.63182 13.5945 6.53158 13.6572 6.44303 13.7109C6.25443 13.8254 6.04072 14.1009 5.95397 14.3415C5.87244 14.5676 5.83963 15.1953 5.8942 15.4857C6.0074 16.0884 6.42436 16.5083 7.0001 16.5993C7.10416 16.6157 7.20053 16.6404 7.2142 16.6541C7.22787 16.6678 7.15494 17.3662 7.05213 18.2062L6.86514 19.7335L6.94252 19.8375C7.09983 20.0488 7.4058 20.0342 7.49697 19.8111C7.52037 19.7539 7.63592 18.9279 7.75377 17.9757C8.01807 15.84 8.05014 16.0023 7.35615 15.9632C6.81865 15.933 6.58889 15.7308 6.53795 15.2432C6.48565 14.7427 6.59275 14.4177 6.87217 14.2294L7.00397 14.1406H10.0002H12.9965L13.1283 14.2294C13.4077 14.4177 13.5148 14.7427 13.4625 15.2432C13.4313 15.542 13.3149 15.7476 13.1108 15.8645L12.9494 15.957L11.1135 15.9669C10.1037 15.9723 9.23686 15.9861 9.18709 15.9976C9.13104 16.0105 9.07514 16.0699 9.0401 16.1537C8.92416 16.4311 9.12029 16.6406 9.49592 16.6406H9.644L9.65608 17.6922C9.66818 18.7438 9.66818 18.7439 9.76287 18.8446C9.89334 18.9834 10.1071 18.9834 10.2376 18.8446C10.3322 18.7439 10.3322 18.7437 10.3443 17.6949L10.3564 16.646L11.7115 16.6319C13.1995 16.6163 13.2272 16.6123 13.5725 16.3644C13.9231 16.1126 14.0935 15.7662 14.1287 15.2344C14.1821 14.4253 13.9394 13.8959 13.3791 13.5994L13.1838 13.4961L10.3081 13.4853L7.43252 13.4746L6.6851 11.7831C5.83248 9.85335 5.83686 9.8696 6.06592 9.48988C6.86525 8.16476 8.73885 5.18222 8.7824 5.1655C8.81354 5.15359 8.86733 5.16171 8.90201 5.18355C8.9583 5.21906 8.96717 5.44031 8.98459 7.24398L9.00412 9.26464L9.11373 9.35886C9.25693 9.48203 9.42861 9.4814 9.55276 9.35722L9.64865 9.26136V7.18773C9.64865 5.2239 9.64471 5.1064 9.57412 4.96913C9.37779 4.58745 8.96236 4.41394 8.55529 4.54359ZM10.8803 4.55234C10.691 4.62421 10.5256 4.77605 10.4263 4.96913C10.3557 5.10644 10.3518 5.22417 10.3518 7.20425V9.29441L10.5569 9.44667C10.8197 9.64187 10.8781 9.70913 10.9756 9.92953C11.2119 10.4637 11.0228 11.0626 10.5377 11.3169C10.3603 11.41 10.2869 11.4247 10.0002 11.4247C9.71686 11.4247 9.63955 11.4096 9.47287 11.3217C9.36545 11.265 9.23885 11.1771 9.19158 11.1264C9.07467 11.001 8.95791 10.7239 8.92369 10.4907C8.86947 10.121 8.55533 9.98566 8.34143 10.2399C8.24701 10.3521 8.24049 10.3814 8.26541 10.5817C8.35955 11.3385 8.81119 11.8564 9.551 12.0558C10.1442 12.2157 10.911 11.9966 11.3095 11.5535C11.7723 11.0387 11.8794 10.2605 11.5756 9.61835C11.5207 9.50242 11.3724 9.29691 11.2458 9.16171L11.0158 8.91581V7.07988C11.0158 5.12679 11.0157 5.12792 11.1983 5.16308C11.2551 5.17402 12.9579 7.86507 13.8875 9.41281C14.1587 9.86433 14.1547 9.88855 13.6131 11.1092C13.3408 11.7228 13.1643 12.1706 13.1643 12.2475C13.1643 12.4409 13.2796 12.5568 13.4721 12.5568C13.5649 12.5568 13.6576 12.5312 13.693 12.4958C13.7546 12.4343 14.5952 10.5732 14.6867 10.2959C14.7615 10.0693 14.722 9.55199 14.6138 9.34234C14.4796 9.08222 11.9235 4.95941 11.8022 4.80742C11.5908 4.54265 11.1946 4.433 10.8803 4.55234ZM12.4363 17.78C12.2509 17.8698 12.2456 17.9412 12.357 18.8637C12.4138 19.3354 12.4804 19.7652 12.5049 19.8189C12.6035 20.0353 12.9029 20.0456 13.0575 19.8379C13.1345 19.7346 13.1344 19.7332 13.028 18.8614C12.9694 18.3812 12.9056 17.9584 12.8863 17.9219C12.7997 17.7584 12.6067 17.6976 12.4363 17.78Z" fill="white"/>
</g>
<defs>
<clipPath id="clip0_35651_6787">
<rect width="20" height="20" fill="white"/>
</clipPath>
</defs>
</svg>
