<svg width="20" height="20" viewBox="0 0 20 20" fill="none" xmlns="http://www.w3.org/2000/svg">
<path fill-rule="evenodd" clip-rule="evenodd" d="M3.28418 1.12311C3.21051 1.16065 3.11383 1.241 3.06934 1.30166C2.98863 1.41166 2.9884 1.42494 2.97813 6.36026C2.97082 9.85608 2.98023 11.3388 3.01023 11.4114C3.03359 11.468 3.10531 11.5646 3.16961 11.6263L3.28652 11.7383H9.99957H16.7126L16.8171 11.6406C17.0448 11.4279 17.0314 11.7533 17.0313 6.41795C17.0313 1.81674 17.027 1.49537 16.963 1.36994C16.9254 1.29627 16.8451 1.19959 16.7844 1.1551C16.6755 1.07518 16.6379 1.07408 13.733 1.06373C10.8989 1.05362 10.7885 1.05592 10.7007 1.12705C10.5744 1.22932 10.5739 1.46557 10.6998 1.56752C10.7861 1.63744 10.9132 1.64061 13.6178 1.64061H16.4455V3.80877V5.97698L12.9636 5.96698L9.48172 5.95701L9.42777 5.74217C9.33227 5.3617 9.14941 5.046 8.85191 4.74776C8.40242 4.29717 7.93004 4.10155 7.29145 4.10155C6.29356 4.10155 5.38246 4.82186 5.1841 5.76768L5.14027 5.97655H4.34758H3.55484V3.80858V1.64061H6.57899C8.24227 1.64061 9.63289 1.6292 9.66926 1.61522C9.84317 1.5485 9.85492 1.18326 9.68613 1.09291C9.64121 1.06889 8.46277 1.05471 6.51641 1.05475C3.64391 1.05479 3.40836 1.05979 3.28418 1.12311ZM7.10953 2.46092C7.04242 2.52803 7.03141 2.59112 7.03141 2.90862C7.03141 3.2385 7.04059 3.28674 7.11691 3.35783C7.22488 3.45842 7.39938 3.46014 7.49797 3.36155C7.65754 3.20198 7.65805 2.58092 7.49871 2.4519C7.38539 2.36014 7.20617 2.36428 7.10953 2.46092ZM5.03922 3.0078C4.99184 3.05518 4.96109 3.13799 4.96109 3.2183C4.96109 3.32905 4.99984 3.38819 5.19777 3.57963C5.32793 3.70553 5.46875 3.82123 5.51066 3.83674C5.61082 3.87381 5.76609 3.81248 5.81809 3.71537C5.91035 3.54295 5.86844 3.43338 5.61215 3.17705C5.33781 2.90276 5.1884 2.85862 5.03922 3.0078ZM9.00004 3.18326C8.74559 3.44151 8.70231 3.54854 8.78773 3.70815C8.84785 3.82049 9.0373 3.88307 9.14699 3.82682C9.27941 3.75889 9.56707 3.47537 9.63527 3.34557C9.74031 3.14565 9.59434 2.92967 9.35418 2.92967C9.27762 2.92967 9.18363 2.99698 9.00004 3.18326ZM6.74488 4.78307C6.30418 4.96428 6.03246 5.21823 5.84238 5.62658C5.66422 6.00932 5.52723 5.97655 7.30484 5.97655C9.09016 5.97655 8.94914 6.01287 8.75512 5.60272C8.47406 5.00865 7.95738 4.68647 7.28895 4.68842C7.04617 4.68912 6.91992 4.71108 6.74488 4.78307ZM1.07438 5.89334C1.00992 5.93338 0.741876 6.18658 0.478673 6.45608C-0.151874 7.10174 -0.152851 7.03897 0.498204 7.70276C1.13426 8.35123 1.24098 8.41115 1.4277 8.2244C1.6125 8.03963 1.56953 7.93291 1.12691 7.47799L0.730235 7.0703L1.12691 6.6626C1.56953 6.20768 1.6125 6.10096 1.4277 5.91619C1.31297 5.80147 1.23094 5.79615 1.07438 5.89334ZM18.5726 5.91619C18.3878 6.10096 18.4308 6.20768 18.8734 6.6626L19.2701 7.0703L18.8734 7.47799C18.4308 7.93291 18.3878 8.03963 18.5726 8.2244C18.7587 8.41053 18.8636 8.35186 19.5021 7.70494C19.9351 7.26623 20.0002 7.18365 20.0002 7.07295C20.0002 6.96244 19.9344 6.87862 19.5021 6.43783C18.8661 5.78936 18.7593 5.72944 18.5726 5.91619ZM3.55484 8.18358V9.80467H4.82695C5.64891 9.80467 6.12645 9.81932 6.17649 9.84612C6.36383 9.94639 6.34621 10.2562 6.14801 10.3465C6.0825 10.3764 5.64746 10.3906 4.80301 10.3906H3.55484V10.7812V11.1719H10.0002H16.4455V9.62807V8.08428L12.9522 8.09487C9.47336 8.10541 9.45852 8.1058 9.34871 8.18744C9.19316 8.30307 9.18043 8.47967 9.31969 8.5892C9.40914 8.65959 9.47762 8.6719 9.78082 8.67209C10.1965 8.67233 10.348 8.70776 10.5903 8.86143C11.111 9.19166 11.0026 9.9724 10.3908 10.2983C10.2657 10.3649 10.1308 10.3721 8.81149 10.3827C7.25891 10.3951 7.18918 10.3876 7.11113 10.1991C7.06293 10.0828 7.10383 9.91619 7.195 9.85729C7.2232 9.83908 7.90258 9.81541 8.70477 9.80467L10.1633 9.78514L10.2575 9.67553C10.373 9.54119 10.3768 9.44889 10.2709 9.35299C10.2056 9.29393 10.102 9.2751 9.73375 9.25537C9.10355 9.22162 8.87676 9.10752 8.71012 8.74037C8.51391 8.30811 8.72938 7.80143 9.19938 7.58987C9.34555 7.52405 9.58402 7.51881 12.9005 7.50858L16.4455 7.4976V7.03006V6.56248H10.0002H3.55484V8.18358ZM0.902891 13.6092C0.702891 13.72 0.706134 13.6769 0.704649 16.2422C0.703165 18.8517 0.70086 18.8236 0.92254 18.9079C0.98129 18.9303 1.99348 18.9453 3.43801 18.9453H5.85516L5.96477 18.851L6.07438 18.7568L6.085 16.3222C6.09281 14.5387 6.08352 13.8583 6.05024 13.7779C5.95602 13.5505 6.005 13.5546 3.39078 13.556C1.47824 13.5572 0.977462 13.5679 0.902891 13.6092ZM7.47504 13.593C7.25934 13.6812 7.26578 13.599 7.26578 16.2617V18.7169L7.37996 18.8311L7.49414 18.9453H9.93555H12.377L12.4971 18.8442L12.6173 18.743V16.2682V13.7934L12.5231 13.6838L12.4288 13.5742L9.99379 13.5665C8.65453 13.5622 7.52109 13.5741 7.47504 13.593ZM14.0902 13.617C14.0301 13.6496 13.9642 13.7203 13.9437 13.7742C13.9215 13.8326 13.9064 14.8522 13.9064 16.2946V18.7169L14.0206 18.8311L14.1348 18.9453H16.5571C18.005 18.9453 19.019 18.9303 19.0778 18.9079C19.2991 18.8238 19.297 18.8479 19.297 16.2773C19.297 14.6512 19.2836 13.8793 19.2537 13.7937C19.1684 13.5489 19.2319 13.5545 16.5939 13.5562C14.5303 13.5576 14.1843 13.566 14.0902 13.617ZM1.28922 15.2202V16.2997L1.48008 16.1212C1.68156 15.9328 1.86555 15.868 2.06027 15.9168C2.12379 15.9328 2.3682 16.1421 2.65742 16.4283L3.14703 16.9127L3.7118 16.3469C4.5102 15.5471 4.59914 15.531 5.16488 16.0846L5.50797 16.4204V15.2805V14.1406H3.39859H1.28922V15.2202ZM7.85172 15.2202V16.2997L8.04367 16.1202C8.25809 15.9196 8.3702 15.8774 8.58441 15.9165C8.70496 15.9386 8.81594 16.0295 9.21641 16.4344L9.70219 16.9255L10.2516 16.3547C10.5537 16.0408 10.8504 15.7658 10.9109 15.7435C11.1868 15.6421 11.4284 15.7567 11.7922 16.1614L12.0299 16.4258L12.0307 15.2832L12.0314 14.1406H9.94156H7.85172V15.2202ZM14.4923 15.2202V16.2997L14.6843 16.1202C14.8989 15.9194 15.0112 15.8772 15.225 15.9171C15.344 15.9392 15.4621 16.0343 15.8593 16.4278L16.3475 16.9113L16.9336 16.3298C17.2908 15.9754 17.5617 15.7378 17.6274 15.7214C17.8603 15.6632 17.9996 15.7315 18.3635 16.0823L18.7111 16.4174V15.279V14.1406H16.6017H14.4923V15.2202ZM4.07043 16.8101C3.80832 17.0752 3.59391 17.3089 3.59391 17.3295C3.59391 17.3501 3.82981 17.5902 4.11816 17.8631L4.64238 18.3594H5.0752H5.50797V17.8033V17.2472L5.04961 16.7877C4.7975 16.5349 4.58125 16.3281 4.56906 16.3281C4.55691 16.3281 4.3325 16.545 4.07043 16.8101ZM10.5949 16.8346L10.1154 17.3319L10.6445 17.8456L11.1736 18.3594H11.6025H12.0314V17.8033V17.2472L11.573 16.7877C11.3209 16.5349 11.1056 16.3302 11.0945 16.3327C11.0834 16.3353 10.8586 16.5611 10.5949 16.8346ZM17.2528 16.8294L16.7527 17.3306L17.2924 17.8437L17.8322 18.3569L18.2716 18.3581L18.7111 18.3594L18.7105 17.8222L18.71 17.2851L18.2579 16.8066C18.0093 16.5434 17.794 16.3281 17.7794 16.3281C17.7648 16.3281 17.5279 16.5537 17.2528 16.8294ZM1.59047 16.8526L1.28922 17.1817V17.7706V18.3594H2.53133H3.77344L2.85254 17.4414C2.34606 16.9365 1.92266 16.5234 1.91168 16.5234C1.9007 16.5234 1.75617 16.6715 1.59047 16.8526ZM8.15356 16.827L7.85172 17.1306V17.745V18.3594H9.08395H10.3162L9.39098 17.4414C8.88211 16.9365 8.46344 16.5234 8.46055 16.5234C8.4577 16.5234 8.31953 16.66 8.15356 16.827ZM14.7942 16.827L14.4923 17.1306V17.745V18.3594H15.7306H16.9688L16.0529 17.4415C15.5491 16.9368 15.1277 16.5237 15.1164 16.5236C15.1052 16.5235 14.9602 16.66 14.7942 16.827Z" fill="white"/>
</svg>
