<svg width="20" height="20" viewBox="0 0 20 20" fill="none" xmlns="http://www.w3.org/2000/svg">
<g clip-path="url(#clip0_35651_6777)">
<path fill-rule="evenodd" clip-rule="evenodd" d="M0.895127 0.586087C0.641767 0.629368 0.421064 0.752611 0.260049 0.940736C-0.0195609 1.26738 -0.000185887 0.742884 -0.000185887 7.98831C-0.000185887 15.2416 -0.0201077 14.7086 0.263447 15.0398C0.34165 15.1312 0.494502 15.2474 0.603095 15.2979L0.800595 15.3899L3.99454 15.3903L7.18853 15.3907L7.17813 16.5086L7.16778 17.6266L6.60931 17.8909C6.30216 18.0364 6.01649 18.1864 5.97454 18.2244C5.90649 18.2859 5.89825 18.347 5.89825 18.7891C5.89825 19.2434 5.90513 19.291 5.98048 19.3592C6.0602 19.4314 6.1831 19.4336 10.0074 19.4336H13.952L14.0267 19.3414C14.0911 19.2618 14.1014 19.1836 14.1014 18.7713C14.1014 18.3619 14.0914 18.2843 14.0315 18.2302C13.9931 18.1954 13.7031 18.0421 13.387 17.8894L12.8123 17.6118V16.5012V15.3907H16.0078H19.2032L19.4061 15.2896C19.6387 15.1737 19.8599 14.9355 19.9252 14.7307C19.95 14.6532 19.9856 14.5732 20.0045 14.5528C20.049 14.5048 20.05 1.35574 20.0056 1.38316C19.9873 1.39449 19.9522 1.33652 19.9276 1.25441C19.863 1.03867 19.6088 0.769212 19.3665 0.659759L19.16 0.566439L10.117 0.56097C5.14337 0.557962 0.993525 0.56929 0.895127 0.586087ZM0.820908 1.12316C0.746142 1.1607 0.645048 1.25117 0.596299 1.32417L0.507627 1.45691V6.95894V12.461H9.99981H19.492V6.95894V1.45691L19.4033 1.32417C19.3546 1.25117 19.2535 1.1607 19.1787 1.12316C19.0505 1.0587 18.5312 1.05484 9.99981 1.05484C1.46841 1.05484 0.94915 1.0587 0.820908 1.12316ZM0.0189157 7.98831C0.0189157 11.6192 0.023486 13.0987 0.029111 11.2762C0.034736 9.45374 0.034736 6.48304 0.029111 4.67468C0.023486 2.86632 0.0189157 4.35745 0.0189157 7.98831ZM2.60079 2.10574C2.50153 2.21542 2.53196 2.42636 2.65606 2.48878C2.79938 2.56093 17.2002 2.56093 17.3436 2.48878C17.4677 2.42636 17.4981 2.21542 17.3988 2.10574C17.333 2.033 17.1619 2.03128 9.99981 2.03128C2.8377 2.03128 2.66661 2.033 2.60079 2.10574ZM12.1348 3.56499C12.057 3.62187 9.76544 9.67144 9.76544 9.81992C9.76544 10.018 10.0334 10.1188 10.1663 9.97074C10.2476 9.88011 12.4998 3.86956 12.4998 3.74312C12.4998 3.55867 12.2861 3.45437 12.1348 3.56499ZM2.86028 4.77464C2.81149 4.79816 2.76231 4.85429 2.75099 4.89933C2.7397 4.94441 2.73567 5.6139 2.74208 6.38714L2.75372 7.793L2.86192 8.01339C3.06767 8.4323 3.51216 8.73202 3.99013 8.77409C4.56911 8.82503 5.15852 8.44886 5.37884 7.88773C5.4377 7.73781 5.44845 7.53238 5.45989 6.33843L5.47313 4.96199L5.37497 4.86382C5.25567 4.74452 5.19755 4.74132 5.06368 4.84663L4.96075 4.92757L4.96052 6.26265C4.9604 7.10742 4.94462 7.65507 4.91759 7.75394C4.85427 7.98534 4.55817 8.25761 4.30337 8.31874C4.19352 8.34511 4.03688 8.35538 3.95528 8.3416C3.61872 8.28472 3.31677 8.0023 3.24036 7.67292C3.22079 7.58859 3.20411 6.9307 3.20329 6.21097C3.20243 5.49124 3.18884 4.88304 3.17306 4.85941C3.14653 4.81968 2.98958 4.7232 2.96138 4.72925C2.95458 4.7307 2.90911 4.75113 2.86028 4.77464ZM6.5227 4.7973C6.47462 4.83624 6.43536 4.91175 6.43536 4.96527C6.43536 5.01878 6.62142 5.44527 6.84888 5.91304L7.26235 6.76359L6.82591 7.63749C6.43782 8.41456 6.39372 8.52343 6.42778 8.62023C6.4788 8.76538 6.6411 8.8237 6.76438 8.74117C6.8163 8.70636 7.0045 8.39109 7.20341 8.00562L7.55153 7.33093L7.88142 7.99163C8.06282 8.35503 8.23849 8.68312 8.27177 8.72074C8.40813 8.87488 8.67169 8.75679 8.67169 8.54152C8.67169 8.48394 8.48505 8.06382 8.25688 7.60796L7.84208 6.77906L8.28228 5.89601C8.75278 4.95218 8.77563 4.8646 8.57513 4.77327C8.37587 4.68249 8.31438 4.75191 7.92411 5.50816L7.55841 6.21687L7.22161 5.5237C6.82372 4.7048 6.74192 4.6198 6.5227 4.7973ZM13.2587 4.7671C13.0811 4.83281 13.0806 4.83753 13.0933 6.33488L13.1053 7.75394L13.2096 7.97644C13.3424 8.25984 13.5929 8.51031 13.8886 8.65554C14.0907 8.75472 14.1642 8.76945 14.4529 8.7687C14.7278 8.768 14.8228 8.75031 15.0045 8.66577C15.3125 8.52253 15.5248 8.31574 15.6733 8.01437L15.8006 7.75581L15.8122 6.33421C15.8227 5.04038 15.8178 4.90597 15.7573 4.83913C15.6899 4.76464 15.5264 4.74249 15.4417 4.79636C15.3292 4.86788 15.3123 5.07062 15.3123 6.35179C15.3123 7.56179 15.3068 7.67023 15.2378 7.80433C15.0794 8.11222 14.8042 8.28171 14.4647 8.28042C14.0875 8.27898 13.7899 8.08964 13.6542 7.76495C13.6034 7.64324 13.5936 7.40277 13.5936 6.27952C13.5936 5.16382 13.584 4.92558 13.5362 4.85734C13.4682 4.76031 13.3665 4.72722 13.2587 4.7671ZM16.8987 4.8255C16.8658 4.85843 16.8285 4.94191 16.8159 5.01105C16.8033 5.08019 16.7982 5.92495 16.8046 6.88827L16.8162 8.6398L16.9084 8.71445C17.0267 8.81023 17.1283 8.80909 17.2264 8.71097C17.3023 8.63503 17.3045 8.58077 17.3045 6.7639C17.3045 5.00292 17.3004 4.8912 17.2331 4.83031C17.1435 4.74925 16.9773 4.74687 16.8987 4.8255ZM2.65606 11.105C2.53196 11.1675 2.50153 11.3784 2.60079 11.4881C2.66661 11.5608 2.8377 11.5625 9.99981 11.5625C17.1619 11.5625 17.333 11.5608 17.3988 11.4881C17.4981 11.3784 17.4677 11.1675 17.3436 11.105C17.2661 11.066 15.7437 11.0559 9.99981 11.0559C4.25595 11.0559 2.73349 11.066 2.65606 11.105ZM9.94122 13.1331C9.33017 13.3467 9.21657 14.1677 9.74649 14.5401C9.98657 14.7089 10.2519 14.7262 10.5277 14.5913C10.8449 14.4361 10.9568 14.2524 10.9568 13.8868C10.9568 13.6493 10.9412 13.5839 10.852 13.4493C10.6644 13.1657 10.2547 13.0235 9.94122 13.1331ZM10.0569 13.4043C9.64755 13.512 9.5695 14.0766 9.93337 14.2985C10.3136 14.5303 10.7804 14.1707 10.661 13.7381C10.5918 13.4874 10.3174 13.3357 10.0569 13.4043ZM7.69513 16.5039V17.6172H9.99981H12.3045V16.5039V15.3907H9.99981H7.69513V16.5039Z" fill="white"/>
</g>
<defs>
<clipPath id="clip0_35651_6777">
<rect width="20" height="20" fill="white"/>
</clipPath>
</defs>
</svg>
