<svg width="25" height="20" viewBox="0 0 25 20" fill="none" xmlns="http://www.w3.org/2000/svg">
<path fill-rule="evenodd" clip-rule="evenodd" d="M6.32184 1.18698C10.301 0.841077 14.3026 0.841077 18.2818 1.18698L20.1898 1.35377C21.0769 1.431 21.9121 1.80456 22.561 2.41428C23.21 3.024 23.6348 3.83439 23.767 4.71494C24.3401 8.52643 24.3401 12.4022 23.767 16.2137C23.7165 16.5473 23.6255 16.8669 23.4992 17.1664C23.4158 17.3648 23.158 17.3951 23.0114 17.2359L17.4251 11.0898C17.3015 10.9539 17.1412 10.8569 16.9635 10.8104C16.7858 10.764 16.5985 10.7702 16.4243 10.8282L13.2261 11.8947L8.58747 6.67604C8.50166 6.5795 8.39703 6.50152 8.28 6.44688C8.16297 6.39225 8.036 6.36211 7.9069 6.35833C7.7778 6.35454 7.64928 6.37718 7.52925 6.42486C7.40922 6.47255 7.3002 6.54426 7.20888 6.6356L0.999569 12.8449C0.957386 12.8883 0.903468 12.9184 0.844425 12.9315C0.785383 12.9447 0.723782 12.9404 0.667174 12.919C0.610566 12.8977 0.561411 12.8603 0.525736 12.8115C0.490061 12.7626 0.469416 12.7044 0.466331 12.644C0.31691 9.9949 0.440552 7.33746 0.835302 4.71367C0.967581 3.83313 1.39239 3.02274 2.04131 2.41302C2.69022 1.8033 3.52548 1.42974 4.41254 1.35251L6.32184 1.18698ZM14.8284 6.67351C14.8284 6.17082 15.0281 5.68872 15.3835 5.33326C15.739 4.97781 16.2211 4.77812 16.7238 4.77812C17.2265 4.77812 17.7086 4.97781 18.064 5.33326C18.4195 5.68872 18.6192 6.17082 18.6192 6.67351C18.6192 7.1762 18.4195 7.6583 18.064 8.01376C17.7086 8.36921 17.2265 8.56891 16.7238 8.56891C16.2211 8.56891 15.739 8.36921 15.3835 8.01376C15.0281 7.6583 14.8284 7.1762 14.8284 6.67351Z" fill="#C7C7C7"/>
<path d="M0.879566 15.6451C0.84536 15.6795 0.819576 15.7213 0.804232 15.7674C0.788888 15.8134 0.784398 15.8624 0.791115 15.9104L0.835341 16.2137C0.96762 17.0942 1.39243 17.9046 2.04134 18.5143C2.69026 19.1241 3.52551 19.4976 4.41258 19.5748L6.32061 19.7404C10.3009 20.0866 14.3015 20.0866 18.2818 19.7404L20.1898 19.5748C20.7131 19.5296 21.2222 19.3805 21.6872 19.1364C21.8603 19.0467 21.8894 18.818 21.758 18.6739L16.5772 12.9751C16.5361 12.9293 16.4825 12.8966 16.423 12.8809C16.3635 12.8652 16.3007 12.8672 16.2424 12.8866L13.2325 13.8899C13.0565 13.9487 12.8672 13.9545 12.6879 13.9067C12.5087 13.8588 12.3474 13.7594 12.2241 13.6208L8.06059 8.93663C8.03192 8.90444 7.99697 8.87846 7.95789 8.86028C7.91881 8.8421 7.87643 8.83211 7.83334 8.83093C7.79026 8.82975 7.74738 8.83739 7.70736 8.8534C7.66734 8.8694 7.63102 8.89343 7.60064 8.92399L0.879566 15.6451Z" fill="#C7C7C7"/>
</svg>
